<svg width="96" height="96" viewBox="0 0 96 96" fill="none" xmlns="http://www.w3.org/2000/svg">
<path fill-rule="evenodd" clip-rule="evenodd" d="M92.9032 77.5912V63.4839C92.9032 61.4679 91.6041 59.7646 89.8064 59.1236V57.2903C89.8064 54.7293 87.7223 52.6452 85.1613 52.6452H67.8441C67.2031 50.8475 65.4999 49.5484 63.4839 49.5484V30.1734C63.4839 26.287 61.3874 22.6792 58.0103 20.7561L28.3293 3.84619C26.9822 1.55768 24.5203 0 21.6774 0C17.4271 0 13.9695 3.44671 13.9401 7.69084H13.9355L12.432 52.7969C8.88155 53.4999 6.19355 56.6338 6.19355 60.3871C6.19355 62.0516 6.73239 63.5845 7.63045 64.8495L3.22529 69.9871C1.14581 72.4134 0 75.5086 0 78.7045C0 82.2844 1.39355 85.6475 3.92361 88.1776L8.57032 92.8243C10.6173 94.8712 13.3394 96 16.2348 96H27.871H29.4194H32.5161V92.9032H29.4194V84.4181L24.1006 80.1631C22.4857 78.8717 21.4715 77.0292 21.2423 74.9729L20.1321 64.9812C21.0906 63.6914 21.6774 62.112 21.6774 60.3871C21.6774 57.9871 20.5564 55.8658 18.8361 54.4444L26.0346 14.1337C26.2785 13.966 26.4989 13.7697 26.7202 13.5726L26.7202 13.5726L26.7979 13.5035L42.6844 29.3899C42.1394 30.3112 41.8064 31.3703 41.8064 32.5161C41.8064 35.393 43.7884 37.7977 46.4516 38.4898V49.5484H45.8942C43.6877 49.5484 41.7708 51.1185 41.3388 53.2815L37.1923 74.0191L37.1706 77.5819C35.2521 79.5375 34.0645 82.2116 34.0645 85.1613C34.0645 91.1365 38.9264 96 44.9032 96H85.1613C91.1381 96 96 91.1365 96 85.1613C96 82.2163 94.8155 79.5453 92.9032 77.5912ZM13.9355 55.7419C16.4965 55.7419 18.5806 57.8261 18.5806 60.3871C18.5806 62.9481 16.4965 65.0323 13.9355 65.0323C11.3745 65.0323 9.29032 62.9481 9.29032 60.3871C9.29032 57.8261 11.3745 55.7419 13.9355 55.7419ZM22.1667 82.5817L26.3226 85.9045V86.7097H23.2258V89.8064H26.3226V92.9032H16.2348C14.1662 92.9032 12.2214 92.0965 10.7597 90.6348L6.11303 85.9881C4.16826 84.0434 3.09677 81.456 3.09677 78.7045C3.09677 76.2472 3.97781 73.8674 5.57729 72.0015L9.89884 66.9615C11.0772 67.6877 12.4521 68.129 13.9355 68.129C15.1386 68.129 16.2627 67.8302 17.28 67.3378L18.1657 75.3135C18.4846 78.192 19.9061 80.7732 22.1667 82.5817ZM15.9592 52.9471C15.8982 52.9302 15.8391 52.9095 15.7802 52.8889C15.6986 52.8604 15.6173 52.8319 15.5319 52.8139L16.8341 13.7311C18.1641 14.8103 19.8348 15.4839 21.6774 15.4839C21.9491 15.4839 22.2099 15.4471 22.4716 15.4102C22.5366 15.401 22.6016 15.3918 22.6668 15.3832L15.9592 52.9471ZM21.6774 12.3871C19.1164 12.3871 17.0323 10.303 17.0323 7.74194C17.0323 5.1809 19.1164 3.09677 21.6774 3.09677C24.2385 3.09677 26.3226 5.1809 26.3226 7.74194C26.3226 10.303 24.2385 12.3871 21.6774 12.3871ZM68.129 61.9355H71.2258V58.8387H68.129V55.7419H85.1613C86.0145 55.7419 86.7097 56.4356 86.7097 57.2903V58.8387H74.3226V61.9355H88.2581C89.1112 61.9355 89.8064 62.6292 89.8064 63.4839V75.3832C88.3959 74.7112 86.8258 74.3226 85.1613 74.3226H68.129V61.9355ZM28.6746 11.0013C29.1019 10.0862 29.3528 9.08129 29.3915 8.016L56.4774 23.4472C58.8898 24.8206 60.3871 27.3987 60.3871 30.1734V49.5484H49.5484V38.4898C52.2116 37.7977 54.1935 35.393 54.1935 32.5161C54.1935 29.1004 51.4157 26.3226 48 26.3226C46.8542 26.3226 45.7951 26.6555 44.8738 27.2005L28.6746 11.0013ZM44.9032 32.5161C44.9032 30.8083 46.2921 29.4194 48 29.4194C49.7079 29.4194 51.0968 30.8083 51.0968 32.5161C51.0968 34.224 49.7079 35.6129 48 35.6129C46.2921 35.6129 44.9032 34.224 44.9032 32.5161ZM40.2581 74.4759L44.3752 53.8901C44.5192 53.1685 45.1587 52.6452 45.8942 52.6452H63.4839C64.337 52.6452 65.0323 53.3388 65.0323 54.1935V74.3226H44.9032C43.2387 74.3226 41.6686 74.7112 40.2581 75.3832V74.4759ZM44.9032 92.9032C40.6343 92.9032 37.1613 89.4302 37.1613 85.1613C37.1613 80.8924 40.6343 77.4193 44.9032 77.4193H85.1613C89.4302 77.4193 92.9032 80.8924 92.9032 85.1613C92.9032 89.4302 89.4302 92.9032 85.1613 92.9032H44.9032ZM83.6129 78.9677C81.7548 78.9677 80.1043 79.807 78.9677 81.1076C77.8312 79.807 76.1806 78.9677 74.3226 78.9677C72.4645 78.9677 70.8139 79.807 69.6774 81.1076C68.5409 79.807 66.8903 78.9677 65.0323 78.9677C63.1742 78.9677 61.5236 79.807 60.3871 81.1076C59.2506 79.807 57.6 78.9677 55.7419 78.9677C53.8839 78.9677 52.2333 79.807 51.0968 81.1076C49.9602 79.807 48.3097 78.9677 46.4516 78.9677C43.0359 78.9677 40.258 81.7456 40.258 85.1613C40.258 88.577 43.0359 91.3548 46.4516 91.3548C48.3097 91.3548 49.9602 90.5156 51.0968 89.215C52.2333 90.5156 53.8839 91.3548 55.7419 91.3548C57.6 91.3548 59.2506 90.5156 60.3871 89.215C61.5236 90.5156 63.1742 91.3548 65.0323 91.3548C66.8903 91.3548 68.5409 90.5156 69.6774 89.215C70.8139 90.5156 72.4645 91.3548 74.3226 91.3548C76.1806 91.3548 77.8312 90.5156 78.9677 89.215C80.1043 90.5156 81.7548 91.3548 83.6129 91.3548C87.0287 91.3548 89.8065 88.577 89.8065 85.1613C89.8065 81.7456 87.0287 78.9677 83.6129 78.9677ZM46.4516 88.2581C44.7437 88.2581 43.3548 86.8692 43.3548 85.1613C43.3548 83.4534 44.7437 82.0645 46.4516 82.0645C48.1595 82.0645 49.5484 83.4534 49.5484 85.1613C49.5484 86.8692 48.1595 88.2581 46.4516 88.2581ZM55.7419 88.2581C54.0341 88.2581 52.6452 86.8692 52.6452 85.1613C52.6452 83.4534 54.0341 82.0645 55.7419 82.0645C57.4498 82.0645 58.8387 83.4534 58.8387 85.1613C58.8387 86.8692 57.4498 88.2581 55.7419 88.2581ZM65.0323 88.2581C63.3244 88.2581 61.9355 86.8692 61.9355 85.1613C61.9355 83.4534 63.3244 82.0645 65.0323 82.0645C66.7401 82.0645 68.129 83.4534 68.129 85.1613C68.129 86.8692 66.7401 88.2581 65.0323 88.2581ZM74.3226 88.2581C72.6147 88.2581 71.2258 86.8692 71.2258 85.1613C71.2258 83.4534 72.6147 82.0645 74.3226 82.0645C76.0305 82.0645 77.4194 83.4534 77.4194 85.1613C77.4194 86.8692 76.0305 88.2581 74.3226 88.2581ZM83.6129 88.2581C81.905 88.2581 80.5161 86.8692 80.5161 85.1613C80.5161 83.4534 81.905 82.0645 83.6129 82.0645C85.3208 82.0645 86.7097 83.4534 86.7097 85.1613C86.7097 86.8692 85.3208 88.2581 83.6129 88.2581ZM46.7303 55.7419H63.4839V68.129H44.9032L44.9326 64.7288L46.7303 55.7419ZM48.031 65.0322H60.3871V58.8387H49.2697L48.031 65.0322ZM86.7097 65.0322H80.5161V68.129H86.7097V65.0322ZM71.2258 65.0322H77.4194V68.129H71.2258V65.0322Z" fill="#FF4500"/>
</svg>
